HIERARCHY
ROOT Hips
{
 OFFSET 0.000000 0.000000 0.000000
 CHANNELS 6 Xposition Yposition Zposition Yrotation Xrotation Zrotation
 JOINT Chest
 {
  OFFSET 0.000000 9.630565 -1.070063
  CHANNELS 3 Yrotation Xrotation Zrotation
  JOINT Chest2
  {
   OFFSET 0.000000 10.515092 0.000000
   CHANNELS 3 Yrotation Xrotation Zrotation
   JOINT Chest3
   {
    OFFSET 0.000000 9.604626 -0.030425
    CHANNELS 3 Yrotation Xrotation Zrotation
    JOINT Chest4
    {
     OFFSET 0.000000 9.593896 -0.030455
     CHANNELS 3 Yrotation Xrotation Zrotation
     JOINT Neck
     {
      OFFSET 0.000000 13.488791 0.000000
      CHANNELS 3 Yrotation Xrotation Zrotation
      JOINT Head
      {
       OFFSET 0.000000 10.704499 -0.075716
       CHANNELS 3 Yrotation Xrotation Zrotation
       End Site
       {
        OFFSET 0.000000 21.416259 -0.029166
       }
      }
     }
     JOINT RightCollar
     {
      OFFSET -3.054452 7.579305 0.000000
      CHANNELS 3 Yrotation Xrotation Zrotation
      JOINT RightShoulder
      {
       OFFSET -14.776674 0.000000 0.000000
       CHANNELS 3 Yrotation Xrotation Zrotation
       JOINT RightElbow
       {
        OFFSET -30.982767 0.000000 0.000000
        CHANNELS 3 Yrotation Xrotation Zrotation
        JOINT RightWrist
        {
         OFFSET -25.330466 0.000000 0.000000
         CHANNELS 3 Yrotation Xrotation Zrotation
         JOINT RightFinger0
         {
          OFFSET -2.833226 0.000000 2.791865
          CHANNELS 3 Yrotation Xrotation Zrotation
          JOINT RightFinger01
          {
           OFFSET -3.663730 0.000000 0.000000
           CHANNELS 3 Yrotation Xrotation Zrotation
           JOINT RightFinger02
           {
            OFFSET -3.215815 0.000000 0.000000
            CHANNELS 3 Yrotation Xrotation Zrotation
            End Site
            {
             OFFSET -3.215815 0.000000 0.000000
            }
           }
          }
         }
         JOINT RightFinger1
         {
          OFFSET -9.466533 0.000000 1.251169
          CHANNELS 3 Yrotation Xrotation Zrotation
          JOINT RightFinger11
          {
           OFFSET -4.280860 0.000000 0.000000
           CHANNELS 3 Yrotation Xrotation Zrotation
           JOINT RightFinger12
           {
            OFFSET -2.336894 0.000000 0.000000
            CHANNELS 3 Yrotation Xrotation Zrotation
            End Site
            {
             OFFSET -2.099069 0.000000 0.000000
            }
           }
          }
         }
         JOINT RightFinger2
         {
          OFFSET -9.482001 0.000000 0.000000
          CHANNELS 3 Yrotation Xrotation Zrotation
          JOINT RightFinger21
          {
           OFFSET -4.684129 0.000000 0.000000
           CHANNELS 3 Yrotation Xrotation Zrotation
           JOINT RightFinger22
           {
            OFFSET -2.771185 0.000000 0.000000
            CHANNELS 3 Yrotation Xrotation Zrotation
            End Site
            {
             OFFSET -2.202471 0.000000 0.000000
            }
           }
          }
         }
         JOINT RightFinger3
         {
          OFFSET -9.119393 0.000000 -1.261509
          CHANNELS 3 Yrotation Xrotation Zrotation
          JOINT RightFinger31
          {
           OFFSET -4.446304 0.000000 0.000000
           CHANNELS 3 Yrotation Xrotation Zrotation
           JOINT RightFinger32
           {
            OFFSET -2.636761 0.000000 0.000000
            CHANNELS 3 Yrotation Xrotation Zrotation
            End Site
            {
             OFFSET -2.223152 0.000000 0.000000
            }
           }
          }
         }
         JOINT RightFinger4
         {
          OFFSET -8.375151 0.000000 -2.254173
          CHANNELS 3 Yrotation Xrotation Zrotation
          JOINT RightFinger41
          {
           OFFSET -3.712147 0.000000 0.000000
           CHANNELS 3 Yrotation Xrotation Zrotation
           JOINT RightFinger42
           {
            OFFSET -2.016347 0.000000 0.000000
            CHANNELS 3 Yrotation Xrotation Zrotation
            End Site
            {
             OFFSET -2.140430 0.000000 0.000000
            }
           }
          }
         }
        }
       }
      }
     }
     JOINT LeftCollar
     {
      OFFSET 3.054452 7.579305 0.000000
      CHANNELS 3 Yrotation Xrotation Zrotation
      JOINT LeftShoulder
      {
       OFFSET 14.776674 0.000000 0.000000
       CHANNELS 3 Yrotation Xrotation Zrotation
       JOINT LeftElbow
       {
        OFFSET 30.982767 0.000000 0.000000
        CHANNELS 3 Yrotation Xrotation Zrotation
        JOINT LeftWrist
        {
         OFFSET 25.330466 0.000000 0.000000
         CHANNELS 3 Yrotation Xrotation Zrotation
         JOINT LeftFinger0
         {
          OFFSET 2.833226 0.000000 2.791865
          CHANNELS 3 Yrotation Xrotation Zrotation
          JOINT LeftFinger01
          {
           OFFSET 3.663730 0.000000 0.000000
           CHANNELS 3 Yrotation Xrotation Zrotation
           JOINT LeftFinger02
           {
            OFFSET 3.215815 0.000000 0.000000
            CHANNELS 3 Yrotation Xrotation Zrotation
            End Site
            {
             OFFSET 3.215815 0.000000 0.000000
            }
           }
          }
         }
         JOINT LeftFinger1
         {
          OFFSET 9.466533 0.000000 1.251169
          CHANNELS 3 Yrotation Xrotation Zrotation
          JOINT LeftFinger11
          {
           OFFSET 4.280860 0.000000 0.000000
           CHANNELS 3 Yrotation Xrotation Zrotation
           JOINT LeftFinger12
           {
            OFFSET 2.336894 0.000000 0.000000
            CHANNELS 3 Yrotation Xrotation Zrotation
            End Site
            {
             OFFSET 2.099069 0.000000 0.000000
            }
           }
          }
         }
         JOINT LeftFinger2
         {
          OFFSET 9.482001 0.000000 0.000000
          CHANNELS 3 Yrotation Xrotation Zrotation
          JOINT LeftFinger21
          {
           OFFSET 4.684129 0.000000 0.000000
           CHANNELS 3 Yrotation Xrotation Zrotation
           JOINT LeftFinger22
           {
            OFFSET 2.771185 0.000000 0.000000
            CHANNELS 3 Yrotation Xrotation Zrotation
            End Site
            {
             OFFSET 2.202471 0.000000 0.000000
            }
           }
          }
         }
         JOINT LeftFinger3
         {
          OFFSET 9.119393 0.000000 -1.261509
          CHANNELS 3 Yrotation Xrotation Zrotation
          JOINT LeftFinger31
          {
           OFFSET 4.446304 0.000000 0.000000
           CHANNELS 3 Yrotation Xrotation Zrotation
           JOINT LeftFinger32
           {
            OFFSET 2.636761 0.000000 0.000000
            CHANNELS 3 Yrotation Xrotation Zrotation
            End Site
            {
             OFFSET 2.223152 0.000000 0.000000
            }
           }
          }
         }
         JOINT LeftFinger4
         {
          OFFSET 8.375151 0.000000 -2.254173
          CHANNELS 3 Yrotation Xrotation Zrotation
          JOINT LeftFinger41
          {
           OFFSET 3.712147 0.000000 0.000000
           CHANNELS 3 Yrotation Xrotation Zrotation
           JOINT LeftFinger42
           {
            OFFSET 2.016347 0.000000 0.000000
            CHANNELS 3 Yrotation Xrotation Zrotation
            End Site
            {
             OFFSET 2.140430 0.000000 0.000000
            }
           }
          }
         }
        }
       }
      }
     }
    }
   }
  }
 }
 JOINT RightHip
 {
  OFFSET -8.040601 0.075541 -0.008393
  CHANNELS 3 Yrotation Xrotation Zrotation
  JOINT RightKnee
  {
   OFFSET 0.000000 -40.488015 -0.007192
   CHANNELS 3 Yrotation Xrotation Zrotation
   JOINT RightAnkle
   {
    OFFSET 0.000000 -39.536317 -0.012122
    CHANNELS 3 Yrotation Xrotation Zrotation
    JOINT RightToe
    {
     OFFSET 0.000000 -7.815405 17.988983
     CHANNELS 3 Yrotation Xrotation Zrotation
     End Site
     {
      OFFSET 0.000000 -2.689051 7.496003
     }
    }
   }
  }
 }
 JOINT LeftHip
 {
  OFFSET 8.040601 0.073397 -0.008155
  CHANNELS 3 Yrotation Xrotation Zrotation
  JOINT LeftKnee
  {
   OFFSET 0.000000 -40.488015 -0.007192
   CHANNELS 3 Yrotation Xrotation Zrotation
   JOINT LeftAnkle
   {
    OFFSET 0.000000 -39.536317 -0.012122
    CHANNELS 3 Yrotation Xrotation Zrotation
    JOINT LeftToe
    {
     OFFSET 0.000000 -7.815405 17.988983
     CHANNELS 3 Yrotation Xrotation Zrotation
     End Site
     {
      OFFSET 0.000000 -2.689051 7.496003
     }
    }
   }
  }
 }
}
MOTION
Frames: 4
Frame Time: 0.016667
0.000000 125.000000 0.000000 84.538558 3.209246 1.537267 -1.163935 -2.467169 0.839507 -0.550229 -6.924842 0.369463 -0.546347 -1.104677 0.313598 -0.385297 5.007847 0.235040 1.191632 17.767467 -1.277840 2.624069 -2.990594 -2.754051 -7.317936 -7.517720 7.382700 5.308343 -7.487802 61.995161 109.236397 -8.145904 19.327994 35.893853 27.447595 -8.390691 97.925042 37.780768 88.242637 0.000009 0.000006 12.910822 0.000001 0.000027 3.215001 -13.530188 7.929879 20.161287 4.734104 2.634885 34.999186 4.675017 3.213958 22.104897 -8.447044 2.250851 14.079372 2.752063 0.273861 54.469602 2.883592 0.791814 34.618979 -6.706057 -8.149437 23.147133 -6.005693 -4.549912 29.388840 -5.835973 -5.178525 18.390810 -3.278156 -14.603348 27.425024 -4.373523 -7.607700 15.509557 -4.135599 -7.854993 9.569073 3.703108 1.993822 -13.076358 -4.388732 -0.233343 -77.312746 -3.983906 10.292808 -1.441325 5.389516 4.567203 -2.041365 -83.687431 72.995189 -52.339820 -0.000010 0.000005 -5.863423 -0.000019 0.000005 8.227594 7.461454 2.845420 -30.930058 -2.070278 3.133397 -17.462528 -1.988748 3.258752 -11.052726 2.587263 -3.340867 -48.439468 -1.391304 2.401268 -15.575840 -1.335656 2.476029 -9.881740 5.473978 -8.981199 -57.848291 0.834642 -1.841814 -12.470147 0.799720 -1.877606 -7.922080 7.218140 -14.483857 -65.419713 1.797302 -2.545990 -18.466093 1.730058 -2.660661 -11.708426 -0.000000 -0.000000 -0.000000 -0.000000 -0.000000 -0.000000 -0.000000 -0.000000 -0.000000 -0.000000 -0.000000 -0.000000 -0.000000 -0.000000 -0.000000 -0.000000 -0.000000 -0.000000 -0.000000 -0.000000 -0.000000 -0.000000 -0.000000 -0.000000
0.000000 125.000000 0.000000 84.516237 3.208206 1.532276 -1.160395 -2.455033 0.843204 -0.548832 -6.919451 0.371165 -0.544966 -1.099284 0.315442 -0.384119 5.011890 0.236437 1.181193 17.762990 -1.274355 2.603803 -2.999379 -2.744269 -7.329582 -7.529399 7.382171 5.254688 -7.423461 61.991092 109.202217 -8.241281 19.397596 35.895696 27.353662 -8.398909 97.958051 37.785796 88.282904 0.000001 -0.000004 12.895603 0.000009 0.000020 3.186502 -13.466859 8.229510 21.409678 4.676379 2.968520 32.631948 4.592827 3.502534 20.593030 -8.514346 1.870438 14.191413 2.118771 0.241267 53.710248 2.214408 0.633883 34.153327 -6.698264 -8.132504 23.140296 -5.982858 -4.535670 29.376226 -5.813980 -5.161472 18.385006 -3.213346 -14.644583 27.379994 -4.266317 -7.657596 15.084590 -4.032199 -7.892260 9.305351 3.717251 1.979913 -13.083456 -4.346532 -0.229235 -77.303957 -4.056048 10.287377 -1.495090 5.359619 4.552858 -2.041170 -83.415177 73.041420 -52.049359 -0.000001 0.000021 -5.879359 -0.000001 0.000034 8.185061 7.460019 2.833867 -30.932416 -2.059629 3.128004 -17.411326 -1.978433 3.252343 -11.020571 2.586908 -3.354936 -48.605817 -1.393877 2.407627 -15.564817 -1.338097 2.482480 -9.874605 5.473707 -8.966032 -57.872676 0.829680 -1.834689 -12.446034 0.794952 -1.870207 -7.906868 7.228837 -14.504772 -65.468337 1.799142 -2.552340 -18.443539 1.731784 -2.666982 -11.693921 -0.000000 0.000000 -0.000000 -0.000000 0.000000 -0.000000 -0.000000 0.000000 -0.000000 -0.000000 0.000000 -0.000000 -0.000000 0.000000 -0.000000 -0.000000 0.000000 -0.000000 -0.000000 0.000000 -0.000000 -0.000000 0.000000 -0.000000
0.000000 125.000000 0.000000 84.490407 3.211249 1.526499 -1.156011 -2.446889 0.847061 -0.547059 -6.915832 0.372933 -0.543209 -1.095663 0.317390 -0.382650 5.014604 0.237911 1.173888 17.758605 -1.272918 2.589993 -3.007813 -2.739303 -7.345259 -7.542076 7.384462 5.192745 -7.343535 61.986635 109.168043 -8.356581 19.478122 35.911751 27.277867 -8.425475 97.907047 37.734780 88.347626 -0.000000 0.000014 12.831323 0.000020 0.000027 3.066045 -13.339398 8.794780 23.710760 4.515862 3.553104 28.680472 4.397954 4.007462 18.071402 -8.515437 1.845129 14.306901 2.068810 0.247858 53.397230 2.159849 0.628962 33.955249 -6.732409 -8.087041 22.974807 -5.975480 -4.554015 29.279029 -5.805540 -5.177046 18.322997 -3.278712 -14.508613 27.264283 -4.188774 -7.691089 14.782395 -3.957563 -7.916904 9.117981 3.734310 1.965214 -13.087658 -4.284331 -0.220908 -77.290397 -4.146334 10.281915 -1.561964 5.324219 4.522357 -2.046960 -83.177786 73.084455 -51.839636 -0.000001 0.000000 -5.830490 -0.000011 0.000015 8.280731 7.461881 2.832667 -30.939598 -2.058201 3.125719 -17.411767 -1.977063 3.249980 -11.020939 2.583195 -3.360541 -48.691570 -1.390537 2.412343 -15.505164 -1.334828 2.486735 -9.836655 5.473347 -8.983034 -57.942820 0.825322 -1.837838 -12.366173 0.790727 -1.872939 -7.856117 7.234912 -14.563601 -65.539652 1.799157 -2.556586 -18.417901 1.731723 -2.671075 -11.677551 -0.000000 0.000000 -0.000000 -0.000000 0.000000 -0.000000 -0.000000 0.000000 -0.000000 -0.000000 0.000000 -0.000000 -0.000000 0.000000 -0.000000 -0.000000 0.000000 -0.000000 -0.000000 0.000000 -0.000000 -0.000000 0.000000 -0.000000
0.000000 125.000000 0.000000 84.466002 3.216505 1.520835 -1.154159 -2.441050 0.851297 -0.546420 -6.913242 0.374851 -0.542578 -1.093073 0.319374 -0.382022 5.016544 0.239409 1.169377 17.753576 -1.274415 2.582332 -3.017252 -2.740698 -7.362590 -7.558852 7.390754 5.117013 -7.243644 61.988820 109.161421 -8.414399 19.554889 35.927596 27.206536 -8.480180 97.885392 37.728577 88.385924 -0.000016 0.000002 12.761564 -0.000011 0.000007 2.943162 -13.291141 9.103971 24.802461 4.403101 3.883305 26.630628 4.264797 4.297053 16.765750 -8.510893 1.835049 14.316864 2.057925 0.252136 53.254420 2.147435 0.630192 33.864619 -6.737510 -8.089743 22.977711 -5.967597 -4.565223 29.209323 -5.797048 -5.185982 18.278830 -3.234254 -14.533875 27.135460 -4.206052 -7.690593 14.837723 -3.974040 -7.918207 9.151842 3.750091 1.951171 -13.092102 -4.234735 -0.213921 -77.280148 -4.223363 10.283839 -1.615424 5.292150 4.481457 -2.046245 -83.249335 73.061435 -51.924736 0.000001 0.000009 -5.833036 -0.000017 0.000014 8.276272 7.459323 2.837665 -30.932973 -2.068207 3.129091 -17.468072 -1.986771 3.254357 -11.056360 2.581977 -3.370278 -48.728158 -1.390837 2.411779 -15.511314 -1.335114 2.486201 -9.840577 5.483671 -9.006909 -57.988762 0.828639 -1.854900 -12.306529 0.793864 -1.889966 -7.817974 7.241685 -14.585722 -65.577120 1.800071 -2.562705 -18.388775 1.732531 -2.677070 -11.658928 -0.000000 0.000000 0.000000 -0.000000 0.000000 0.000000 -0.000000 0.000000 0.000000 -0.000000 0.000000 0.000000 -0.000000 0.000000 0.000000 -0.000000 0.000000 0.000000 -0.000000 0.000000 0.000000 -0.000000 0.000000 0.000000
